<svg width="256" height="51" viewBox="0 0 256 51" fill="none" xmlns="http://www.w3.org/2000/svg">
<rect x="0.5" y="0.5" width="255" height="50" stroke="white"/>
<path d="M32.5269 25.08C32.5269 24.1267 32.6883 23.1953 33.0109 22.286C33.3483 21.362 33.8323 20.526 34.4629 19.778C35.1083 19.0153 35.8929 18.414 36.8169 17.974C37.7409 17.5193 38.7896 17.292 39.9629 17.292C41.3563 17.292 42.5516 17.6147 43.5489 18.26C44.5463 18.8907 45.2869 19.7047 45.7709 20.702L44.2089 21.714C43.9009 21.054 43.5049 20.5333 43.0209 20.152C42.5516 19.756 42.0383 19.4773 41.4809 19.316C40.9383 19.1547 40.4029 19.074 39.8749 19.074C39.0096 19.074 38.2396 19.25 37.5649 19.602C36.9049 19.954 36.3476 20.4233 35.8929 21.01C35.4383 21.5967 35.0936 22.2567 34.8589 22.99C34.6389 23.7087 34.5289 24.4347 34.5289 25.168C34.5289 25.9747 34.6609 26.752 34.9249 27.5C35.2036 28.248 35.5849 28.908 36.0689 29.48C36.5529 30.052 37.1249 30.5067 37.7849 30.844C38.4449 31.1813 39.1636 31.35 39.9409 31.35C40.4836 31.35 41.0409 31.2547 41.6129 31.064C42.1849 30.8733 42.7203 30.58 43.2189 30.184C43.7176 29.7733 44.1136 29.2453 44.4069 28.6L46.0569 29.502C45.7343 30.2793 45.2356 30.9393 44.5609 31.482C43.8863 32.0247 43.1309 32.4353 42.2949 32.714C41.4736 32.9927 40.6596 33.132 39.8529 33.132C38.7823 33.132 37.7996 32.9047 36.9049 32.45C36.0103 31.9807 35.2329 31.3647 34.5729 30.602C33.9276 29.8247 33.4216 28.9593 33.0549 28.006C32.7029 27.038 32.5269 26.0627 32.5269 25.08ZM47.3061 35.992V31.24H48.0101C48.4208 31.24 48.7801 31.0787 49.0881 30.756C49.3961 30.4187 49.6601 29.8907 49.8801 29.172C50.1001 28.4387 50.2761 27.4633 50.4081 26.246C50.5401 25.0287 50.6355 23.5253 50.6941 21.736L50.8041 17.38H60.4841V31.24H62.4201V35.992H60.6601V33H49.0661V35.992H47.3061ZM50.6501 31.24H58.5041V19.14H52.6301L52.5641 21.978C52.5201 23.826 52.4248 25.3733 52.2781 26.62C52.1315 27.8667 51.9261 28.864 51.6621 29.612C51.3981 30.36 51.0608 30.9027 50.6501 31.24ZM75.6605 31.24V33H65.0565V17.38H75.4625V19.14H67.0365V24.2H74.3625V25.85H67.0365V31.24H75.6605ZM88.7168 33V19.14H82.8868L82.7988 22.242C82.7255 24.3687 82.5642 26.136 82.3148 27.544C82.0802 28.9373 81.7355 30.0373 81.2808 30.844C80.8408 31.636 80.2908 32.2007 79.6308 32.538C78.9708 32.8753 78.1862 33.044 77.2768 33.044V31.306C77.8342 31.306 78.3255 31.1667 78.7508 30.888C79.1762 30.6093 79.5355 30.1253 79.8288 29.436C80.1368 28.732 80.3788 27.7567 80.5548 26.51C80.7308 25.2633 80.8482 23.672 80.9068 21.736L81.0388 17.38H90.6968V33H88.7168ZM99.1991 17.38H100.871L107.251 33H105.139L103.291 28.424H96.7351L94.9091 33H92.7971L99.1991 17.38ZM102.851 26.884L100.035 19.668L97.1311 26.884H102.851ZM119.139 19.14H113.749V33H111.769V19.14H106.379V17.38H119.139V19.14ZM121.389 33V17.38H123.369V23.298H127.109C128.253 23.298 129.206 23.5033 129.969 23.914C130.731 24.31 131.303 24.8747 131.685 25.608C132.081 26.3267 132.279 27.17 132.279 28.138C132.279 29.0473 132.088 29.876 131.707 30.624C131.325 31.3573 130.761 31.9367 130.013 32.362C129.265 32.7873 128.341 33 127.241 33H121.389ZM123.369 31.35H126.977C127.754 31.35 128.385 31.2033 128.869 30.91C129.353 30.602 129.705 30.206 129.925 29.722C130.145 29.2233 130.255 28.6953 130.255 28.138C130.255 27.5807 130.152 27.06 129.947 26.576C129.756 26.092 129.419 25.7033 128.935 25.41C128.451 25.102 127.791 24.948 126.955 24.948H123.369V31.35ZM139.476 25.08C139.476 24.1267 139.637 23.1953 139.96 22.286C140.297 21.362 140.781 20.526 141.412 19.778C142.057 19.0153 142.842 18.414 143.766 17.974C144.69 17.5193 145.739 17.292 146.912 17.292C148.305 17.292 149.501 17.6147 150.498 18.26C151.495 18.8907 152.236 19.7047 152.72 20.702L151.158 21.714C150.85 21.054 150.454 20.5333 149.97 20.152C149.501 19.756 148.987 19.4773 148.43 19.316C147.887 19.1547 147.352 19.074 146.824 19.074C145.959 19.074 145.189 19.25 144.514 19.602C143.854 19.954 143.297 20.4233 142.842 21.01C142.387 21.5967 142.043 22.2567 141.808 22.99C141.588 23.7087 141.478 24.4347 141.478 25.168C141.478 25.9747 141.61 26.752 141.874 27.5C142.153 28.248 142.534 28.908 143.018 29.48C143.502 30.052 144.074 30.5067 144.734 30.844C145.394 31.1813 146.113 31.35 146.89 31.35C147.433 31.35 147.99 31.2547 148.562 31.064C149.134 30.8733 149.669 30.58 150.168 30.184C150.667 29.7733 151.063 29.2453 151.356 28.6L153.006 29.502C152.683 30.2793 152.185 30.9393 151.51 31.482C150.835 32.0247 150.08 32.4353 149.244 32.714C148.423 32.9927 147.609 33.132 146.802 33.132C145.731 33.132 144.749 32.9047 143.854 32.45C142.959 31.9807 142.182 31.3647 141.522 30.602C140.877 29.8247 140.371 28.9593 140.004 28.006C139.652 27.038 139.476 26.0627 139.476 25.08ZM166.748 19.14H161.358V33H159.378V19.14H153.988V17.38H166.748V19.14ZM172.289 17.38H173.961L180.341 33H178.229L176.381 28.424H169.825L167.999 33H165.887L172.289 17.38ZM175.941 26.884L173.125 19.668L170.221 26.884H175.941ZM194.416 28.974C194.416 29.7807 194.21 30.4847 193.8 31.086C193.389 31.6873 192.832 32.1567 192.128 32.494C191.438 32.8313 190.676 33 189.84 33H182.426V17.38H190.192C190.925 17.38 191.556 17.578 192.084 17.974C192.626 18.3553 193.037 18.854 193.316 19.47C193.609 20.0713 193.756 20.702 193.756 21.362C193.756 22.1247 193.558 22.8433 193.162 23.518C192.78 24.178 192.23 24.6693 191.512 24.992C192.406 25.256 193.11 25.7473 193.624 26.466C194.152 27.17 194.416 28.006 194.416 28.974ZM192.414 28.622C192.414 28.138 192.304 27.6907 192.084 27.28C191.878 26.8693 191.592 26.5393 191.226 26.29C190.874 26.0407 190.463 25.916 189.994 25.916H184.406V31.284H189.84C190.324 31.284 190.756 31.1593 191.138 30.91C191.534 30.6607 191.842 30.338 192.062 29.942C192.296 29.5313 192.414 29.0913 192.414 28.622ZM184.406 19.096V24.31H189.378C189.847 24.31 190.258 24.1927 190.61 23.958C190.976 23.7233 191.262 23.408 191.468 23.012C191.688 22.616 191.798 22.1833 191.798 21.714C191.798 21.2153 191.695 20.7753 191.49 20.394C191.299 19.998 191.028 19.6827 190.676 19.448C190.338 19.2133 189.95 19.096 189.51 19.096H184.406ZM197.185 33V17.38H199.165V24.134H201.255L206.403 17.38H208.691L202.883 24.948L209.087 33H206.667L201.299 25.938H199.165V33H197.185ZM213.188 33.066V31.394H214.178C214.544 31.394 214.816 31.306 214.992 31.13C215.182 30.9393 215.38 30.6607 215.586 30.294L216.158 29.062L209.646 17.38H211.824L217.06 27.038L221.46 17.38H223.55L217.104 31.24C216.781 31.9 216.436 32.3693 216.07 32.648C215.718 32.9267 215.226 33.066 214.596 33.066H213.188Z" fill="white"/>
</svg>
